<svg width="218" height="17" viewBox="0 0 218 17" fill="none" xmlns="http://www.w3.org/2000/svg">
<path d="M0.62 13V1.192H2.114V11.722H7.28V13H0.62ZM9.98591 2.452C9.69791 2.452 9.45191 2.362 9.24791 2.182C9.05591 2.002 8.95991 1.774 8.95991 1.498C8.95991 1.21 9.05591 0.981999 9.24791 0.813999C9.45191 0.633999 9.69791 0.543999 9.98591 0.543999C10.2739 0.543999 10.5139 0.633999 10.7059 0.813999C10.9099 0.981999 11.0119 1.21 11.0119 1.498C11.0119 1.774 10.9099 2.002 10.7059 2.182C10.5139 2.362 10.2739 2.452 9.98591 2.452ZM9.22991 13V4.252H10.7059V13H9.22991ZM13.6596 13V4.252H14.8836L15.0096 5.512H15.0636C15.4476 5.104 15.8676 4.756 16.3236 4.468C16.7796 4.18 17.2656 4.036 17.7816 4.036C18.4416 4.036 18.9636 4.186 19.3476 4.486C19.7316 4.786 20.0136 5.194 20.1936 5.71C20.6496 5.218 21.1116 4.816 21.5796 4.504C22.0476 4.192 22.5456 4.036 23.0736 4.036C24.8496 4.036 25.7376 5.176 25.7376 7.456V13H24.2616V7.654C24.2616 6.094 23.7216 5.314 22.6416 5.314C21.9816 5.314 21.2496 5.764 20.4456 6.664V13H18.9696V7.654C18.9696 6.094 18.4236 5.314 17.3316 5.314C16.6836 5.314 15.9516 5.764 15.1356 6.664V13H13.6596ZM29.3394 2.452C29.0514 2.452 28.8054 2.362 28.6014 2.182C28.4094 2.002 28.3134 1.774 28.3134 1.498C28.3134 1.21 28.4094 0.981999 28.6014 0.813999C28.8054 0.633999 29.0514 0.543999 29.3394 0.543999C29.6274 0.543999 29.8674 0.633999 30.0594 0.813999C30.2634 0.981999 30.3654 1.21 30.3654 1.498C30.3654 1.774 30.2634 2.002 30.0594 2.182C29.8674 2.362 29.6274 2.452 29.3394 2.452ZM28.5834 13V4.252H30.0594V13H28.5834ZM35.7671 13.216C34.8311 13.216 34.1771 12.946 33.8051 12.406C33.4451 11.866 33.2651 11.164 33.2651 10.3V5.458H31.9691V4.342L33.3371 4.252L33.5171 1.804H34.7591V4.252H37.1171V5.458H34.7591V10.318C34.7591 10.858 34.8551 11.278 35.0471 11.578C35.2511 11.866 35.6051 12.01 36.1091 12.01C36.2651 12.01 36.4331 11.986 36.6131 11.938C36.7931 11.878 36.9551 11.824 37.0991 11.776L37.3871 12.892C37.1471 12.976 36.8831 13.048 36.5951 13.108C36.3191 13.18 36.0431 13.216 35.7671 13.216ZM42.395 13.216C41.231 13.216 40.241 12.814 39.425 12.01C38.609 11.194 38.201 10.072 38.201 8.644C38.201 7.684 38.387 6.862 38.759 6.178C39.143 5.494 39.629 4.966 40.217 4.594C40.817 4.222 41.453 4.036 42.125 4.036C43.241 4.036 44.099 4.408 44.699 5.152C45.311 5.896 45.617 6.892 45.617 8.14C45.617 8.488 45.599 8.77 45.563 8.986H39.659C39.719 9.91 40.007 10.648 40.523 11.2C41.051 11.752 41.735 12.028 42.575 12.028C42.995 12.028 43.379 11.968 43.727 11.848C44.087 11.716 44.429 11.548 44.753 11.344L45.275 12.316C44.903 12.556 44.477 12.766 43.997 12.946C43.517 13.126 42.983 13.216 42.395 13.216ZM39.641 7.924H44.321C44.321 6.112 43.601 5.206 42.161 5.206C41.549 5.206 40.997 5.446 40.505 5.926C40.025 6.394 39.737 7.06 39.641 7.924ZM51.0907 11.974C51.8587 11.974 52.6027 11.572 53.3227 10.768V6.196C52.9507 5.86 52.5907 5.626 52.2427 5.494C51.9067 5.35 51.5587 5.278 51.1987 5.278C50.5027 5.278 49.9087 5.59 49.4167 6.214C48.9247 6.826 48.6787 7.63 48.6787 8.626C48.6787 9.67 48.8887 10.492 49.3087 11.092C49.7287 11.68 50.3227 11.974 51.0907 11.974ZM50.7667 13.216C49.6627 13.216 48.7807 12.82 48.1207 12.028C47.4727 11.236 47.1487 10.108 47.1487 8.644C47.1487 7.228 47.5327 6.106 48.3007 5.278C49.0687 4.45 49.9507 4.036 50.9467 4.036C51.4507 4.036 51.8887 4.126 52.2607 4.306C52.6327 4.486 53.0107 4.732 53.3947 5.044L53.3227 3.55V0.184H54.8167V13H53.5927L53.4667 11.974H53.4127C53.0647 12.31 52.6627 12.604 52.2067 12.856C51.7627 13.096 51.2827 13.216 50.7667 13.216ZM63.9586 13V2.452H60.3946V1.192H69.0346V2.452H65.4706V13H63.9586ZM71.773 2.452C71.485 2.452 71.239 2.362 71.035 2.182C70.843 2.002 70.747 1.774 70.747 1.498C70.747 1.21 70.843 0.981999 71.035 0.813999C71.239 0.633999 71.485 0.543999 71.773 0.543999C72.061 0.543999 72.301 0.633999 72.493 0.813999C72.697 0.981999 72.799 1.21 72.799 1.498C72.799 1.774 72.697 2.002 72.493 2.182C72.301 2.362 72.061 2.452 71.773 2.452ZM71.017 13V4.252H72.493V13H71.017ZM75.4467 13V4.252H76.6707L76.7967 5.512H76.8507C77.2347 5.104 77.6547 4.756 78.1107 4.468C78.5667 4.18 79.0527 4.036 79.5687 4.036C80.2287 4.036 80.7507 4.186 81.1347 4.486C81.5187 4.786 81.8007 5.194 81.9807 5.71C82.4367 5.218 82.8987 4.816 83.3667 4.504C83.8347 4.192 84.3327 4.036 84.8607 4.036C86.6367 4.036 87.5247 5.176 87.5247 7.456V13H86.0487V7.654C86.0487 6.094 85.5087 5.314 84.4287 5.314C83.7687 5.314 83.0367 5.764 82.2327 6.664V13H80.7567V7.654C80.7567 6.094 80.2107 5.314 79.1187 5.314C78.4707 5.314 77.7387 5.764 76.9227 6.664V13H75.4467ZM93.9165 13.216C92.7525 13.216 91.7625 12.814 90.9465 12.01C90.1305 11.194 89.7225 10.072 89.7225 8.644C89.7225 7.684 89.9085 6.862 90.2805 6.178C90.6645 5.494 91.1505 4.966 91.7385 4.594C92.3385 4.222 92.9745 4.036 93.6465 4.036C94.7625 4.036 95.6205 4.408 96.2205 5.152C96.8325 5.896 97.1385 6.892 97.1385 8.14C97.1385 8.488 97.1205 8.77 97.0845 8.986H91.1805C91.2405 9.91 91.5285 10.648 92.0445 11.2C92.5725 11.752 93.2565 12.028 94.0965 12.028C94.5165 12.028 94.9005 11.968 95.2485 11.848C95.6085 11.716 95.9505 11.548 96.2745 11.344L96.7965 12.316C96.4245 12.556 95.9985 12.766 95.5185 12.946C95.0385 13.126 94.5045 13.216 93.9165 13.216ZM91.1625 7.924H95.8425C95.8425 6.112 95.1225 5.206 93.6825 5.206C93.0705 5.206 92.5185 5.446 92.0265 5.926C91.5465 6.394 91.2585 7.06 91.1625 7.924ZM107.404 13.216C105.916 13.216 104.704 12.664 103.768 11.56C102.832 10.444 102.364 8.938 102.364 7.042C102.364 5.158 102.832 3.676 103.768 2.596C104.704 1.516 105.916 0.975999 107.404 0.975999C108.892 0.975999 110.104 1.516 111.04 2.596C111.988 3.676 112.462 5.158 112.462 7.042C112.462 8.938 111.988 10.444 111.04 11.56C110.104 12.664 108.892 13.216 107.404 13.216ZM107.404 11.902C108.46 11.902 109.306 11.464 109.942 10.588C110.578 9.7 110.896 8.518 110.896 7.042C110.896 5.578 110.578 4.42 109.942 3.568C109.306 2.716 108.46 2.29 107.404 2.29C106.348 2.29 105.502 2.716 104.866 3.568C104.23 4.42 103.912 5.578 103.912 7.042C103.912 8.518 104.23 9.7 104.866 10.588C105.502 11.464 106.348 11.902 107.404 11.902ZM114.857 13V4.252H116.081L116.207 5.512H116.261C116.669 5.104 117.107 4.756 117.575 4.468C118.055 4.18 118.595 4.036 119.195 4.036C120.971 4.036 121.859 5.176 121.859 7.456V13H120.383V7.654C120.383 6.838 120.251 6.244 119.987 5.872C119.723 5.5 119.303 5.314 118.727 5.314C118.283 5.314 117.881 5.428 117.521 5.656C117.173 5.884 116.777 6.22 116.333 6.664V13H114.857ZM126.267 13.216C125.223 13.216 124.701 12.556 124.701 11.236V0.184H126.177V11.344C126.177 11.776 126.315 11.992 126.591 11.992C126.699 11.992 126.807 11.98 126.915 11.956L127.113 13.072C126.897 13.168 126.615 13.216 126.267 13.216ZM129.433 16.762C129.073 16.762 128.731 16.702 128.406 16.582L128.695 15.412C128.779 15.436 128.881 15.46 129 15.484C129.133 15.52 129.253 15.538 129.361 15.538C129.853 15.538 130.261 15.358 130.585 14.998C130.909 14.65 131.161 14.206 131.341 13.666L131.539 13.018L128.029 4.252H129.559L131.341 9.094C131.473 9.466 131.611 9.868 131.755 10.3C131.911 10.732 132.055 11.152 132.187 11.56H132.259C132.391 11.164 132.517 10.75 132.637 10.318C132.757 9.886 132.877 9.478 132.997 9.094L134.563 4.252H136.003L132.709 13.72C132.397 14.584 131.995 15.304 131.503 15.88C131.011 16.468 130.321 16.762 129.433 16.762ZM141.438 13V1.192H148.242V2.452H142.932V6.448H147.432V7.708H142.932V13H141.438ZM153.345 13.216C152.277 13.216 151.335 12.82 150.519 12.028C149.703 11.224 149.295 10.096 149.295 8.644C149.295 7.18 149.703 6.046 150.519 5.242C151.335 4.438 152.277 4.036 153.345 4.036C154.413 4.036 155.355 4.438 156.171 5.242C156.987 6.046 157.395 7.18 157.395 8.644C157.395 10.096 156.987 11.224 156.171 12.028C155.355 12.82 154.413 13.216 153.345 13.216ZM153.345 11.992C154.101 11.992 154.707 11.686 155.163 11.074C155.631 10.45 155.865 9.64 155.865 8.644C155.865 7.636 155.631 6.82 155.163 6.196C154.707 5.572 154.101 5.26 153.345 5.26C152.601 5.26 151.995 5.572 151.527 6.196C151.059 6.82 150.825 7.636 150.825 8.644C150.825 9.64 151.059 10.45 151.527 11.074C151.995 11.686 152.601 11.992 153.345 11.992ZM159.699 13V4.252H160.923L161.049 5.836H161.103C161.403 5.284 161.769 4.846 162.201 4.522C162.633 4.198 163.095 4.036 163.587 4.036C163.935 4.036 164.247 4.096 164.523 4.216L164.235 5.512C164.091 5.464 163.959 5.428 163.839 5.404C163.719 5.38 163.569 5.368 163.389 5.368C163.017 5.368 162.627 5.518 162.219 5.818C161.823 6.118 161.475 6.64 161.175 7.384V13H159.699ZM170.982 13L168.48 1.192H170.028L171.27 7.618C171.378 8.254 171.492 8.89 171.612 9.526C171.732 10.162 171.846 10.798 171.954 11.434H172.026C172.158 10.798 172.296 10.162 172.44 9.526C172.584 8.89 172.722 8.254 172.854 7.618L174.492 1.192H175.86L177.498 7.618C177.642 8.242 177.786 8.878 177.93 9.526C178.074 10.162 178.218 10.798 178.362 11.434H178.434C178.542 10.798 178.65 10.162 178.758 9.526C178.866 8.89 178.98 8.254 179.1 7.618L180.342 1.192H181.782L179.334 13H177.534L175.752 5.89C175.548 5.038 175.356 4.144 175.176 3.208H175.104C175.02 3.664 174.924 4.114 174.816 4.558C174.708 4.99 174.606 5.434 174.51 5.89L172.764 13H170.982ZM184.449 2.452C184.161 2.452 183.915 2.362 183.711 2.182C183.519 2.002 183.423 1.774 183.423 1.498C183.423 1.21 183.519 0.981999 183.711 0.813999C183.915 0.633999 184.161 0.543999 184.449 0.543999C184.737 0.543999 184.977 0.633999 185.169 0.813999C185.373 0.981999 185.475 1.21 185.475 1.498C185.475 1.774 185.373 2.002 185.169 2.182C184.977 2.362 184.737 2.452 184.449 2.452ZM183.693 13V4.252H185.169V13H183.693ZM188.122 13V4.252H189.346L189.472 5.512H189.526C189.934 5.104 190.372 4.756 190.84 4.468C191.32 4.18 191.86 4.036 192.46 4.036C194.236 4.036 195.124 5.176 195.124 7.456V13H193.648V7.654C193.648 6.838 193.516 6.244 193.252 5.872C192.988 5.5 192.568 5.314 191.992 5.314C191.548 5.314 191.146 5.428 190.786 5.656C190.438 5.884 190.042 6.22 189.598 6.664V13H188.122ZM200.72 13.216C199.784 13.216 199.13 12.946 198.758 12.406C198.398 11.866 198.218 11.164 198.218 10.3V5.458H196.922V4.342L198.29 4.252L198.47 1.804H199.712V4.252H202.07V5.458H199.712V10.318C199.712 10.858 199.808 11.278 200 11.578C200.204 11.866 200.558 12.01 201.062 12.01C201.218 12.01 201.386 11.986 201.566 11.938C201.746 11.878 201.908 11.824 202.052 11.776L202.34 12.892C202.1 12.976 201.836 13.048 201.548 13.108C201.272 13.18 200.996 13.216 200.72 13.216ZM207.348 13.216C206.184 13.216 205.194 12.814 204.378 12.01C203.562 11.194 203.154 10.072 203.154 8.644C203.154 7.684 203.34 6.862 203.712 6.178C204.096 5.494 204.582 4.966 205.17 4.594C205.77 4.222 206.406 4.036 207.078 4.036C208.194 4.036 209.052 4.408 209.652 5.152C210.264 5.896 210.57 6.892 210.57 8.14C210.57 8.488 210.552 8.77 210.516 8.986H204.612C204.672 9.91 204.96 10.648 205.476 11.2C206.004 11.752 206.688 12.028 207.528 12.028C207.948 12.028 208.332 11.968 208.68 11.848C209.04 11.716 209.382 11.548 209.706 11.344L210.228 12.316C209.856 12.556 209.43 12.766 208.95 12.946C208.47 13.126 207.936 13.216 207.348 13.216ZM204.594 7.924H209.274C209.274 6.112 208.554 5.206 207.114 5.206C206.502 5.206 205.95 5.446 205.458 5.926C204.978 6.394 204.69 7.06 204.594 7.924ZM212.732 13V4.252H213.956L214.082 5.836H214.136C214.436 5.284 214.802 4.846 215.234 4.522C215.666 4.198 216.128 4.036 216.62 4.036C216.968 4.036 217.28 4.096 217.556 4.216L217.268 5.512C217.124 5.464 216.992 5.428 216.872 5.404C216.752 5.38 216.602 5.368 216.422 5.368C216.05 5.368 215.66 5.518 215.252 5.818C214.856 6.118 214.508 6.64 214.208 7.384V13H212.732Z" fill="black"/>
</svg>
