<svg width="371" height="18" viewBox="0 0 371 18" fill="none" xmlns="http://www.w3.org/2000/svg">
<path d="M0.16 17V1.256H2.152V15.296H9.04V17H0.16ZM17.0071 17.288C15.0231 17.288 13.4071 16.552 12.1591 15.08C10.9111 13.592 10.2871 11.584 10.2871 9.056C10.2871 6.544 10.9111 4.568 12.1591 3.128C13.4071 1.688 15.0231 0.967999 17.0071 0.967999C18.9911 0.967999 20.6071 1.688 21.8551 3.128C23.1191 4.568 23.7511 6.544 23.7511 9.056C23.7511 11.584 23.1191 13.592 21.8551 15.08C20.6071 16.552 18.9911 17.288 17.0071 17.288ZM17.0071 15.536C18.4151 15.536 19.5431 14.952 20.3911 13.784C21.2391 12.6 21.6631 11.024 21.6631 9.056C21.6631 7.104 21.2391 5.56 20.3911 4.424C19.5431 3.288 18.4151 2.72 17.0071 2.72C15.5991 2.72 14.4711 3.288 13.6231 4.424C12.7751 5.56 12.3511 7.104 12.3511 9.056C12.3511 11.024 12.7751 12.6 13.6231 13.784C14.4711 14.952 15.5991 15.536 17.0071 15.536ZM32.9446 17.288C30.9606 17.288 29.3446 16.552 28.0966 15.08C26.8486 13.592 26.2246 11.584 26.2246 9.056C26.2246 6.544 26.8486 4.568 28.0966 3.128C29.3446 1.688 30.9606 0.967999 32.9446 0.967999C34.9286 0.967999 36.5446 1.688 37.7926 3.128C39.0566 4.568 39.6886 6.544 39.6886 9.056C39.6886 11.584 39.0566 13.592 37.7926 15.08C36.5446 16.552 34.9286 17.288 32.9446 17.288ZM32.9446 15.536C34.3526 15.536 35.4806 14.952 36.3286 13.784C37.1766 12.6 37.6006 11.024 37.6006 9.056C37.6006 7.104 37.1766 5.56 36.3286 4.424C35.4806 3.288 34.3526 2.72 32.9446 2.72C31.5366 2.72 30.4086 3.288 29.5606 4.424C28.7126 5.56 28.2886 7.104 28.2886 9.056C28.2886 11.024 28.7126 12.6 29.5606 13.784C30.4086 14.952 31.5366 15.536 32.9446 15.536ZM43.0741 17V1.256H45.0661V9.152H45.1381L51.6901 1.256H53.9461L49.0261 7.256L54.7141 17H52.4821L47.7781 8.816L45.0661 12.008V17H43.0741ZM64.3212 17V10.904L59.5932 1.256H61.7292L63.7692 5.696C64.0252 6.272 64.2732 6.84 64.5132 7.4C64.7692 7.96 65.0252 8.536 65.2812 9.128H65.3772C65.6492 8.536 65.9212 7.96 66.1932 7.4C66.4652 6.84 66.7212 6.272 66.9612 5.696L68.9772 1.256H71.0652L66.3372 10.904V17H64.3212ZM78.6711 17.288C76.6871 17.288 75.0711 16.552 73.8231 15.08C72.5751 13.592 71.9511 11.584 71.9511 9.056C71.9511 6.544 72.5751 4.568 73.8231 3.128C75.0711 1.688 76.6871 0.967999 78.6711 0.967999C80.6551 0.967999 82.2711 1.688 83.5191 3.128C84.7831 4.568 85.4151 6.544 85.4151 9.056C85.4151 11.584 84.7831 13.592 83.5191 15.08C82.2711 16.552 80.6551 17.288 78.6711 17.288ZM78.6711 15.536C80.0791 15.536 81.2071 14.952 82.0551 13.784C82.9031 12.6 83.3271 11.024 83.3271 9.056C83.3271 7.104 82.9031 5.56 82.0551 4.424C81.2071 3.288 80.0791 2.72 78.6711 2.72C77.2631 2.72 76.1351 3.288 75.2871 4.424C74.4391 5.56 74.0151 7.104 74.0151 9.056C74.0151 11.024 74.4391 12.6 75.2871 13.784C76.1351 14.952 77.2631 15.536 78.6711 15.536ZM94.3926 17.288C92.7766 17.288 91.4246 16.792 90.3366 15.8C89.2646 14.792 88.7286 13.024 88.7286 10.496V1.256H90.7206V10.544C90.7206 12.448 91.0726 13.76 91.7766 14.48C92.4806 15.184 93.3526 15.536 94.3926 15.536C95.4326 15.536 96.3126 15.184 97.0326 14.48C97.7526 13.76 98.1126 12.448 98.1126 10.544V1.256H100.033V10.496C100.033 13.024 99.4966 14.792 98.4246 15.8C97.3526 16.792 96.0086 17.288 94.3926 17.288ZM106.261 8.72H108.901C111.445 8.72 112.717 7.704 112.717 5.672C112.717 4.648 112.389 3.928 111.733 3.512C111.077 3.08 110.133 2.864 108.901 2.864H106.261V8.72ZM106.261 17H104.269V1.256H109.189C110.805 1.256 112.125 1.584 113.149 2.24C114.189 2.896 114.709 4.04 114.709 5.672C114.709 6.904 114.381 7.888 113.725 8.624C113.085 9.36 112.229 9.864 111.157 10.136L115.165 17H112.909L109.117 10.352H106.261V17ZM122.738 17V1.256H127.418C129.018 1.256 130.314 1.552 131.306 2.144C132.314 2.736 132.818 3.72 132.818 5.096C132.818 5.88 132.618 6.592 132.218 7.232C131.818 7.856 131.25 8.288 130.514 8.528V8.624C131.458 8.8 132.226 9.2 132.818 9.824C133.426 10.448 133.73 11.304 133.73 12.392C133.73 13.944 133.17 15.104 132.05 15.872C130.946 16.624 129.514 17 127.754 17H122.738ZM124.73 7.952H127.058C128.402 7.952 129.37 7.72 129.962 7.256C130.554 6.792 130.85 6.16 130.85 5.36C130.85 4.448 130.538 3.8 129.914 3.416C129.29 3.032 128.37 2.84 127.154 2.84H124.73V7.952ZM124.73 15.416H127.466C128.826 15.416 129.882 15.168 130.634 14.672C131.386 14.16 131.762 13.376 131.762 12.32C131.762 11.344 131.386 10.632 130.634 10.184C129.898 9.72 128.842 9.488 127.466 9.488H124.73V15.416ZM136.848 17V1.256H145.92V2.936H138.84V7.88H144.816V9.584H138.84V15.296H146.16V17H136.848ZM153.872 17.288C152.768 17.288 151.744 17.08 150.8 16.664C149.856 16.232 149.04 15.664 148.352 14.96L149.552 13.568C150.112 14.16 150.768 14.64 151.52 15.008C152.288 15.36 153.08 15.536 153.896 15.536C154.936 15.536 155.744 15.304 156.32 14.84C156.896 14.36 157.184 13.736 157.184 12.968C157.184 12.168 156.936 11.592 156.44 11.24C155.944 10.872 155.32 10.52 154.568 10.184L152.312 9.2C151.56 8.896 150.84 8.432 150.152 7.808C149.464 7.184 149.12 6.296 149.12 5.144C149.12 3.944 149.584 2.952 150.512 2.168C151.456 1.368 152.64 0.967999 154.064 0.967999C154.992 0.967999 155.856 1.152 156.656 1.52C157.472 1.872 158.16 2.336 158.72 2.912L157.64 4.208C157.16 3.744 156.624 3.384 156.032 3.128C155.456 2.856 154.8 2.72 154.064 2.72C153.184 2.72 152.472 2.928 151.928 3.344C151.4 3.76 151.136 4.32 151.136 5.024C151.136 5.776 151.416 6.336 151.976 6.704C152.536 7.072 153.128 7.384 153.752 7.64L155.984 8.6C156.896 9 157.664 9.512 158.288 10.136C158.912 10.744 159.224 11.632 159.224 12.8C159.224 14.048 158.744 15.112 157.784 15.992C156.84 16.856 155.536 17.288 153.872 17.288ZM165.119 17V2.936H160.367V1.256H171.887V2.936H167.135V17H165.119ZM185.335 17.288C183.351 17.288 181.735 16.552 180.487 15.08C179.239 13.592 178.615 11.584 178.615 9.056C178.615 6.544 179.239 4.568 180.487 3.128C181.735 1.688 183.351 0.967999 185.335 0.967999C187.319 0.967999 188.935 1.688 190.183 3.128C191.447 4.568 192.079 6.544 192.079 9.056C192.079 11.584 191.447 13.592 190.183 15.08C188.935 16.552 187.319 17.288 185.335 17.288ZM185.335 15.536C186.743 15.536 187.871 14.952 188.719 13.784C189.567 12.6 189.991 11.024 189.991 9.056C189.991 7.104 189.567 5.56 188.719 4.424C187.871 3.288 186.743 2.72 185.335 2.72C183.927 2.72 182.799 3.288 181.951 4.424C181.103 5.56 180.679 7.104 180.679 9.056C180.679 11.024 181.103 12.6 181.951 13.784C182.799 14.952 183.927 15.536 185.335 15.536ZM195.465 17V1.256H197.529L203.217 11.144L204.921 14.408H205.017C204.969 13.608 204.913 12.784 204.849 11.936C204.801 11.072 204.777 10.224 204.777 9.392V1.256H206.673V17H204.609L198.897 7.088L197.193 3.848H197.097C197.161 4.648 197.217 5.464 197.265 6.296C197.329 7.112 197.361 7.936 197.361 8.768V17H195.465ZM218.352 17V10.904L213.624 1.256H215.76L217.8 5.696C218.056 6.272 218.304 6.84 218.544 7.4C218.8 7.96 219.056 8.536 219.312 9.128H219.408C219.68 8.536 219.952 7.96 220.224 7.4C220.496 6.84 220.752 6.272 220.992 5.696L223.008 1.256H225.096L220.368 10.904V17H218.352ZM232.702 17.288C230.718 17.288 229.102 16.552 227.854 15.08C226.606 13.592 225.982 11.584 225.982 9.056C225.982 6.544 226.606 4.568 227.854 3.128C229.102 1.688 230.718 0.967999 232.702 0.967999C234.686 0.967999 236.302 1.688 237.55 3.128C238.814 4.568 239.446 6.544 239.446 9.056C239.446 11.584 238.814 13.592 237.55 15.08C236.302 16.552 234.686 17.288 232.702 17.288ZM232.702 15.536C234.11 15.536 235.238 14.952 236.086 13.784C236.934 12.6 237.358 11.024 237.358 9.056C237.358 7.104 236.934 5.56 236.086 4.424C235.238 3.288 234.11 2.72 232.702 2.72C231.294 2.72 230.166 3.288 229.318 4.424C228.47 5.56 228.046 7.104 228.046 9.056C228.046 11.024 228.47 12.6 229.318 13.784C230.166 14.952 231.294 15.536 232.702 15.536ZM248.424 17.288C246.808 17.288 245.456 16.792 244.368 15.8C243.296 14.792 242.76 13.024 242.76 10.496V1.256H244.752V10.544C244.752 12.448 245.104 13.76 245.808 14.48C246.512 15.184 247.384 15.536 248.424 15.536C249.464 15.536 250.344 15.184 251.064 14.48C251.784 13.76 252.144 12.448 252.144 10.544V1.256H254.064V10.496C254.064 13.024 253.528 14.792 252.456 15.8C251.384 16.792 250.04 17.288 248.424 17.288ZM260.293 8.72H262.933C265.477 8.72 266.749 7.704 266.749 5.672C266.749 4.648 266.421 3.928 265.765 3.512C265.109 3.08 264.165 2.864 262.933 2.864H260.293V8.72ZM260.293 17H258.301V1.256H263.221C264.837 1.256 266.157 1.584 267.181 2.24C268.221 2.896 268.741 4.04 268.741 5.672C268.741 6.904 268.413 7.888 267.757 8.624C267.117 9.36 266.261 9.864 265.189 10.136L269.197 17H266.941L263.149 10.352H260.293V17ZM276.769 17V1.256H281.449C283.049 1.256 284.345 1.552 285.337 2.144C286.345 2.736 286.849 3.72 286.849 5.096C286.849 5.88 286.649 6.592 286.249 7.232C285.849 7.856 285.281 8.288 284.545 8.528V8.624C285.489 8.8 286.257 9.2 286.849 9.824C287.457 10.448 287.761 11.304 287.761 12.392C287.761 13.944 287.201 15.104 286.081 15.872C284.977 16.624 283.545 17 281.785 17H276.769ZM278.761 7.952H281.089C282.433 7.952 283.401 7.72 283.993 7.256C284.585 6.792 284.881 6.16 284.881 5.36C284.881 4.448 284.569 3.8 283.945 3.416C283.321 3.032 282.401 2.84 281.185 2.84H278.761V7.952ZM278.761 15.416H281.497C282.857 15.416 283.913 15.168 284.665 14.672C285.417 14.16 285.793 13.376 285.793 12.32C285.793 11.344 285.417 10.632 284.665 10.184C283.929 9.72 282.873 9.488 281.497 9.488H278.761V15.416ZM290.879 17V1.256H299.951V2.936H292.871V7.88H298.847V9.584H292.871V15.296H300.191V17H290.879ZM307.903 17.288C306.799 17.288 305.775 17.08 304.831 16.664C303.887 16.232 303.071 15.664 302.383 14.96L303.583 13.568C304.143 14.16 304.799 14.64 305.551 15.008C306.319 15.36 307.111 15.536 307.927 15.536C308.967 15.536 309.775 15.304 310.351 14.84C310.927 14.36 311.215 13.736 311.215 12.968C311.215 12.168 310.967 11.592 310.471 11.24C309.975 10.872 309.351 10.52 308.599 10.184L306.343 9.2C305.591 8.896 304.871 8.432 304.183 7.808C303.495 7.184 303.151 6.296 303.151 5.144C303.151 3.944 303.615 2.952 304.543 2.168C305.487 1.368 306.671 0.967999 308.095 0.967999C309.023 0.967999 309.887 1.152 310.687 1.52C311.503 1.872 312.191 2.336 312.751 2.912L311.671 4.208C311.191 3.744 310.655 3.384 310.063 3.128C309.487 2.856 308.831 2.72 308.095 2.72C307.215 2.72 306.503 2.928 305.959 3.344C305.431 3.76 305.167 4.32 305.167 5.024C305.167 5.776 305.447 6.336 306.007 6.704C306.567 7.072 307.159 7.384 307.783 7.64L310.015 8.6C310.927 9 311.695 9.512 312.319 10.136C312.943 10.744 313.255 11.632 313.255 12.8C313.255 14.048 312.775 15.112 311.815 15.992C310.871 16.856 309.567 17.288 307.903 17.288ZM319.151 17V2.936H314.399V1.256H325.919V2.936H321.167V17H319.151ZM333.558 17V1.256H337.494C339.926 1.256 341.774 1.936 343.038 3.296C344.302 4.64 344.934 6.56 344.934 9.056C344.934 11.568 344.302 13.52 343.038 14.912C341.774 16.304 339.958 17 337.59 17H333.558ZM335.55 15.368H337.35C339.19 15.368 340.566 14.816 341.478 13.712C342.406 12.608 342.87 11.056 342.87 9.056C342.87 7.072 342.406 5.552 341.478 4.496C340.566 3.424 339.19 2.888 337.35 2.888H335.55V15.368ZM350.802 8.192L350.058 10.592H354.786L354.042 8.192C353.754 7.312 353.482 6.44 353.226 5.576C352.97 4.696 352.714 3.8 352.458 2.888H352.362C352.122 3.8 351.874 4.696 351.618 5.576C351.362 6.44 351.09 7.312 350.802 8.192ZM356.778 17L355.29 12.2H349.554L348.042 17H346.002L351.33 1.256H353.586L358.914 17H356.778ZM363.36 17V10.904L358.632 1.256H360.768L362.808 5.696C363.064 6.272 363.312 6.84 363.552 7.4C363.808 7.96 364.064 8.536 364.32 9.128H364.416C364.688 8.536 364.96 7.96 365.232 7.4C365.504 6.84 365.76 6.272 366 5.696L368.016 1.256H370.104L365.376 10.904V17H363.36Z" fill="black"/>
</svg>
